<svg width="114" height="145" viewBox="0 0 114 145" fill="none" xmlns="http://www.w3.org/2000/svg">
<path d="M29.7719 128.946C22.0083 139.136 4.35888 136.555 0.347656 128.946C2.93554 134.355 11.4807 145.048 24.9585 144.551C41.8056 143.93 73.9472 131.119 94.9867 100.453C116.026 69.7863 117.449 51.6393 109.66 29.8045C99.412 1.0776 59.4291 -8.08316 36.371 7.60037C12.1277 24.0901 19.7568 53.82 29.7719 76.6193C37.8199 94.9405 39.5328 116.135 29.7719 128.946Z" fill="url(#paint0_linear_164_56)"/>
<path d="M81.4599 27.7411L65.8333 30.3678C62.3481 30.9537 60.7319 35.0321 62.8698 37.8462L67.0822 44.415L69.8172 48.0241C74.5603 54.2833 84.4394 52.2632 86.3447 44.6445L88.2483 37.0325C88.4709 36.1425 87.9205 35.2428 87.0268 35.0357C86.2566 34.8572 85.7232 34.155 85.7578 33.3652L85.8347 31.6093C85.9393 29.2217 83.8168 27.3449 81.4599 27.7411Z" fill="url(#paint1_linear_164_56)"/>
<ellipse cx="82.294" cy="14.5333" rx="3.64892" ry="5.74511" transform="rotate(-42.4912 82.294 14.5333)" fill="url(#paint2_linear_164_56)"/>
<ellipse cx="50.5713" cy="22.7013" rx="3.64892" ry="5.74511" transform="rotate(-42.4912 50.5713 22.7013)" fill="url(#paint3_linear_164_56)"/>
<defs>
<linearGradient id="paint0_linear_164_56" x1="78.7606" y1="6.74498" x2="0.425296" y2="130.342" gradientUnits="userSpaceOnUse">
<stop stop-color="#9BE1FF"/>
<stop offset="1" stop-color="#00436D"/>
</linearGradient>
<linearGradient id="paint1_linear_164_56" x1="72.2319" y1="26.3666" x2="70.6223" y2="63.1027" gradientUnits="userSpaceOnUse">
<stop/>
<stop offset="1" stop-color="#666666"/>
</linearGradient>
<linearGradient id="paint2_linear_164_56" x1="85.8092" y1="12.0478" x2="77.1708" y2="21.7895" gradientUnits="userSpaceOnUse">
<stop/>
<stop offset="1" stop-color="#666666"/>
</linearGradient>
<linearGradient id="paint3_linear_164_56" x1="54.0865" y1="20.2158" x2="45.4481" y2="29.9574" gradientUnits="userSpaceOnUse">
<stop/>
<stop offset="1" stop-color="#666666"/>
</linearGradient>
</defs>
</svg>
