<svg width="250" height="60" viewBox="0 0 250 60" fill="none" xmlns="http://www.w3.org/2000/svg">
<path d="M213.367 54.7862L212.517 51.962H212.45L211.599 54.7862H213.367Z" fill="#EEEEEE"/>
<path fill-rule="evenodd" clip-rule="evenodd" d="M249.375 47.8678H191.901V60H249.375V47.8678ZM205.286 52.0414C205.363 52.1528 205.42 52.2823 205.457 52.4299H207.799C207.755 52.001 207.63 51.6069 207.424 51.2476C207.219 50.8883 206.948 50.5778 206.611 50.316C206.278 50.0514 205.893 49.8481 205.457 49.706C205.023 49.5612 204.553 49.4888 204.048 49.4888C203.472 49.4888 202.933 49.5863 202.43 49.7812C201.927 49.9734 201.484 50.2589 201.1 50.6377C200.717 51.0137 200.417 51.4746 200.2 52.0205C199.986 52.5664 199.879 53.1931 199.879 53.9005C199.879 54.8029 200.054 55.5813 200.404 56.2359C200.757 56.8904 201.248 57.3945 201.876 57.7482C202.504 58.1019 203.233 58.2788 204.064 58.2788C204.809 58.2788 205.469 58.1325 206.044 57.8401C206.622 57.5449 207.075 57.1215 207.403 56.5701C207.734 56.0158 207.9 55.3488 207.9 54.5689V53.3825H204.114V55.0368H205.664C205.658 55.2756 205.6 55.4845 205.49 55.6635C205.373 55.8529 205.197 55.9991 204.96 56.1022C204.727 56.2052 204.434 56.2567 204.081 56.2567C203.681 56.2567 203.346 56.162 203.076 55.9727C202.807 55.7833 202.604 55.5103 202.468 55.1538C202.331 54.7973 202.263 54.3684 202.263 53.8671C202.263 53.3713 202.334 52.948 202.476 52.597C202.62 52.2461 202.829 51.9773 203.101 51.7907C203.376 51.6041 203.708 51.5108 204.098 51.5108C204.278 51.5108 204.444 51.5317 204.594 51.5735C204.746 51.6125 204.88 51.6724 204.994 51.7531C205.111 51.8311 205.208 51.9272 205.286 52.0414ZM208.081 58.1618H210.582L211.076 56.5241H213.891L214.384 58.1618H216.885L214.067 49.6058H210.899L208.081 58.1618ZM220.24 49.6058H217.356V58.1618H219.623V53.1819H219.69L221.591 58.0949H222.958L224.859 53.2153H224.926V58.1618H227.194V49.6058H224.309L222.325 54.452H222.225L220.24 49.6058ZM227.94 49.6058V58.1618H234.077V56.2902H230.258V54.8196H233.777V52.948H230.258V51.4774H234.093V49.6058H227.94ZM239.18 51.6278C239.367 51.7838 239.471 52.001 239.493 52.2795H241.711C241.708 51.7197 241.569 51.2309 241.294 50.8131C241.022 50.3926 240.634 50.0667 240.131 49.8356C239.628 49.6044 239.032 49.4888 238.342 49.4888C237.667 49.4888 237.068 49.603 236.546 49.8314C236.026 50.0598 235.619 50.3787 235.324 50.7881C235.032 51.1947 234.888 51.6696 234.891 52.2127C234.888 52.8811 235.103 53.4089 235.537 53.7961C235.973 54.1804 236.569 54.4547 237.325 54.6191L238.176 54.8029C238.493 54.8725 238.744 54.9477 238.93 55.0285C239.116 55.1065 239.25 55.1956 239.33 55.2959C239.414 55.3933 239.457 55.5075 239.46 55.6384C239.457 55.7777 239.412 55.9016 239.326 56.0103C239.24 56.1189 239.114 56.2038 238.947 56.2651C238.78 56.3264 238.573 56.357 238.326 56.357C238.031 56.357 237.777 56.3111 237.563 56.2191C237.352 56.1272 237.188 55.9922 237.071 55.8139C236.954 55.6357 236.889 55.4156 236.875 55.1538H234.674C234.677 55.8696 234.83 56.4573 235.132 56.9168C235.438 57.3736 235.866 57.712 236.416 57.932C236.97 58.152 237.617 58.2621 238.359 58.2621C239.082 58.2621 239.7 58.1604 240.214 57.9571C240.731 57.7538 241.129 57.4571 241.407 57.0672C241.684 56.6773 241.825 56.201 241.828 55.6384C241.825 55.3126 241.772 55.0118 241.669 54.736C241.569 54.4603 241.412 54.2124 241.198 53.9924C240.984 53.7696 240.709 53.576 240.373 53.4117C240.036 53.2474 239.632 53.1151 239.16 53.0148L238.459 52.8644C238.256 52.8226 238.081 52.7753 237.934 52.7224C237.787 52.6695 237.666 52.611 237.571 52.5469C237.477 52.4801 237.407 52.4063 237.363 52.3255C237.321 52.2419 237.303 52.1486 237.309 52.0456C237.311 51.9203 237.349 51.8088 237.421 51.7114C237.493 51.6139 237.605 51.5373 237.755 51.4816C237.908 51.4231 238.103 51.3939 238.342 51.3939C238.718 51.3939 238.997 51.4718 239.18 51.6278Z" fill="#EEEEEE"/>
<path d="M100.398 0.609254H112.47V29.1571C112.47 32.5516 111.659 35.489 110.038 37.9696C108.431 40.4356 106.188 42.3431 103.307 43.6922C100.427 45.0268 97.0829 45.694 93.2759 45.694C89.4401 45.694 86.0819 45.0268 83.2014 43.6922C80.3208 42.3431 78.0772 40.4356 76.4705 37.9696C74.8782 35.489 74.0821 32.5516 74.0821 29.1571V0.609254H86.1542V28.1127C86.1542 29.4908 86.4582 30.7238 87.0662 31.8117C87.6741 32.8852 88.5137 33.7265 89.5848 34.3358C90.6704 34.945 91.9008 35.2497 93.2759 35.2497C94.6655 35.2497 95.8959 34.945 96.9671 34.3358C98.0382 33.7265 98.8778 32.8852 99.4857 31.8117C100.094 30.7238 100.398 29.4908 100.398 28.1127V0.609254Z" fill="#EEEEEE"/>
<path d="M25.0996 14.5351C24.9838 13.0844 24.441 11.953 23.4712 11.1406C22.5158 10.3283 21.0611 9.92213 19.107 9.92213C17.8621 9.92213 16.8416 10.0744 16.0455 10.3791C15.2639 10.6692 14.6849 11.0681 14.3085 11.5758C13.9322 12.0835 13.7368 12.6638 13.7223 13.3165C13.6933 13.8533 13.7874 14.3392 14.0045 14.7744C14.2361 15.1951 14.598 15.5795 15.0902 15.9276C15.5823 16.2613 16.212 16.5659 16.9792 16.8415C17.7463 17.1171 18.6583 17.3637 19.7149 17.5813L23.3626 18.3646C25.8234 18.8869 27.9295 19.5759 29.681 20.4318C31.4324 21.2876 32.8654 22.2958 33.98 23.4563C35.0946 24.6022 35.9124 25.8933 36.4335 27.3294C36.9691 28.7655 37.2441 30.3321 37.2586 32.0293C37.2441 34.9596 36.5131 37.4401 35.0656 39.4709C33.6181 41.5018 31.5482 43.0467 28.8559 44.1056C26.178 45.1646 22.9573 45.694 19.1938 45.694C15.329 45.694 11.9563 45.121 9.07581 43.9751C6.20977 42.8291 3.98062 41.0666 2.38837 38.6876C0.810599 36.2941 0.014475 33.2333 0 29.5053H11.4642C11.5366 30.8689 11.8767 32.0148 12.4847 32.9432C13.0926 33.8716 13.9466 34.5751 15.0467 35.0538C16.1613 35.5325 17.4858 35.7719 19.0201 35.7719C20.3084 35.7719 21.3868 35.6123 22.2553 35.2932C23.1238 34.9741 23.7824 34.5316 24.2311 33.9659C24.6798 33.4002 24.9114 32.7546 24.9259 32.0293C24.9114 31.3476 24.6871 30.7528 24.2528 30.2451C23.8331 29.7229 23.1383 29.2587 22.1684 28.8525C21.1986 28.4318 19.8886 28.0402 18.2385 27.6775L13.8091 26.7201C9.87194 25.8643 6.76705 24.4354 4.49448 22.4336C2.23638 20.4173 1.11457 17.6684 1.12905 14.1869C1.11457 11.3582 1.86727 8.88495 3.38715 6.76707C4.92149 4.63468 7.04208 2.97374 9.7489 1.78424C12.4702 0.594747 15.5896 0 19.107 0C22.6968 0 25.8017 0.602001 28.4216 1.806C31.0416 3.01 33.0609 4.70721 34.4794 6.89762C35.9124 9.07353 36.6362 11.6193 36.6507 14.5351H25.0996Z" fill="#EEEEEE"/>
<path d="M234.573 14.5351C234.457 13.0844 233.915 11.953 232.945 11.1406C231.989 10.3283 230.535 9.92213 228.581 9.92213C227.336 9.92213 226.315 10.0744 225.519 10.3791C224.737 10.6692 224.158 11.0681 223.782 11.5758C223.406 12.0835 223.21 12.6638 223.196 13.3165C223.167 13.8533 223.261 14.3392 223.478 14.7744C223.71 15.1951 224.072 15.5795 224.564 15.9276C225.056 16.2613 225.686 16.5659 226.453 16.8415C227.22 17.1171 228.132 17.3637 229.189 17.5813L232.836 18.3646C235.297 18.8869 237.403 19.5759 239.155 20.4318C240.906 21.2876 242.339 22.2958 243.454 23.4563C244.568 24.6022 245.386 25.8933 245.907 27.3294C246.443 28.7655 246.718 30.3321 246.732 32.0293C246.718 34.9596 245.987 37.4401 244.539 39.4709C243.092 41.5018 241.022 43.0467 238.329 44.1056C235.652 45.1646 232.431 45.694 228.667 45.694C224.803 45.694 221.43 45.121 218.549 43.9751C215.683 42.8291 213.454 41.0666 211.862 38.6876C210.284 36.2941 209.488 33.2333 209.474 29.5053H220.938C221.01 30.8689 221.35 32.0148 221.958 32.9432C222.566 33.8716 223.42 34.5751 224.52 35.0538C225.635 35.5325 226.959 35.7719 228.494 35.7719C229.782 35.7719 230.86 35.6123 231.729 35.2932C232.597 34.9741 233.256 34.5316 233.705 33.9659C234.153 33.4002 234.385 32.7546 234.4 32.0293C234.385 31.3476 234.161 30.7528 233.726 30.2451C233.307 29.7229 232.612 29.2587 231.642 28.8525C230.672 28.4318 229.362 28.0402 227.712 27.6775L223.283 26.7201C219.346 25.8643 216.241 24.4354 213.968 22.4336C211.71 20.4173 210.588 17.6684 210.603 14.1869C210.588 11.3582 211.341 8.88495 212.861 6.76707C214.395 4.63468 216.516 2.97374 219.223 1.78424C221.944 0.594747 225.063 0 228.581 0C232.17 0 235.275 0.602001 237.895 1.806C240.515 3.01 242.534 4.70721 243.953 6.89762C245.386 9.07353 246.11 11.6193 246.124 14.5351H234.573Z" fill="#EEEEEE"/>
<path d="M211.415 45.1718V0.609254H179.368V10.3573H199.343V18.0165H181.018V27.7646H199.343V35.4237H179.455V45.1718H211.415Z" fill="#EEEEEE"/>
<path d="M112.491 45.1718V0.609254H124.564V35.4237H142.541V45.1718H112.491Z" fill="#EEEEEE"/>
<path d="M149.788 45.1718V0.609254H161.86V35.4237H179.838V45.1718H149.788Z" fill="#EEEEEE"/>
<path d="M76.799 22.8905C76.799 27.8516 75.8365 32.0366 73.9113 35.4455C71.9861 38.8399 69.3878 41.4147 66.1165 43.17C62.8452 44.9107 59.1975 45.7811 55.1734 45.7811C51.1204 45.7811 47.4582 44.9034 44.1869 43.1482C40.93 41.3785 38.339 38.7964 36.4138 35.402C34.5031 31.9931 33.5478 27.8226 33.5478 22.8905C33.5478 17.9295 34.5031 13.7517 36.4138 10.3573C38.339 6.94839 40.93 4.37357 44.1869 2.63285C47.4582 0.877615 51.1204 0 55.1734 0C59.1975 0 62.8452 0.877615 66.1165 2.63285C69.3878 4.37357 71.9861 6.94839 73.9113 10.3573C75.8365 13.7517 76.799 17.9295 76.799 22.8905ZM64.3795 22.8905C64.3795 20.2214 64.0249 17.973 63.3156 16.1452C62.6208 14.303 61.5858 12.9104 60.2107 11.9675C58.8501 11.0101 57.171 10.5314 55.1734 10.5314C53.1759 10.5314 51.4895 11.0101 50.1144 11.9675C48.7538 12.9104 47.7188 14.303 47.0095 16.1452C46.3147 17.973 45.9673 20.2214 45.9673 22.8905C45.9673 25.5596 46.3147 27.8153 47.0095 29.6576C47.7188 31.4854 48.7538 32.8779 50.1144 33.8353C51.4895 34.7782 53.1759 35.2497 55.1734 35.2497C57.171 35.2497 58.8501 34.7782 60.2107 33.8353C61.5858 32.8779 62.6208 31.4854 63.3156 29.6576C64.0249 27.8153 64.3795 25.5596 64.3795 22.8905Z" fill="#EEEEEE"/>
</svg>
